<svg width="58" height="81" viewBox="0 0 58 81" fill="none" xmlns="http://www.w3.org/2000/svg">
<path d="M55.3177 34.481L55.3186 34.4789C56.586 31.5341 57.2188 28.4041 57.2188 25.0938C57.2188 21.7834 56.586 18.6708 55.3177 15.7611C54.0539 12.8618 52.3236 10.33 50.1271 8.16996C47.967 5.97337 45.4352 4.243 42.5357 2.97915C39.6261 1.71084 36.5134 1.07812 33.2031 1.07812H5.20312H4.70312V1.57812V17.2734V17.7734H5.20312H33.2031C34.2342 17.7734 35.1883 17.9621 36.0708 18.3355C36.957 18.7104 37.7198 19.2365 38.3641 19.9147L38.3729 19.924L38.3822 19.9328C39.0604 20.5771 39.5865 21.3399 39.9614 22.2261C40.3347 23.1085 40.5234 24.0627 40.5234 25.0938C40.5234 26.1236 40.3352 27.0974 39.9601 28.0192C39.5843 28.9065 39.0559 29.6901 38.373 30.373C37.7281 31.0179 36.9625 31.5295 36.0708 31.9067C35.1883 32.2801 34.2342 32.4688 33.2031 32.4688H25.3281C22.0188 32.4688 18.907 33.1011 15.9981 34.3687C13.0969 35.5964 10.5462 37.3092 8.34957 39.5058C6.18824 41.6671 4.47633 44.2179 3.21297 47.1531C1.94502 50.0624 1.3125 53.1745 1.3125 56.4844V80V80.5H1.8125H54.5859H55.0859V80V64.3047V63.8047H54.5859H18.0078V56.4844C18.0078 55.4533 18.1965 54.4992 18.5699 53.6167C18.9471 52.725 19.4587 51.9594 20.1036 51.3145C20.7873 50.6308 21.5719 50.102 22.4604 49.7261C23.3429 49.3528 24.2971 49.1641 25.3281 49.1641H33.2031C36.5134 49.1641 39.6261 48.5313 42.5357 47.263C45.4347 45.9994 47.9665 44.2875 50.127 42.127C52.3232 39.9308 54.0536 37.381 55.3177 34.481Z" stroke="#49494F"/>
</svg>
